<svg width="20" height="20" viewBox="0 0 20 20" fill="none" xmlns="http://www.w3.org/2000/svg">
<path id="Vector" d="M17.05 2.91003C16.1332 1.98395 15.0412 1.2497 13.8376 0.75008C12.6341 0.250463 11.3431 -0.00451063 10.04 2.90521e-05C4.57999 2.90521e-05 0.129988 4.45003 0.129988 9.91003C0.129988 11.66 0.589988 13.36 1.44999 14.86L0.0499878 20L5.29999 18.62C6.74999 19.41 8.37999 19.83 10.04 19.83C15.5 19.83 19.95 15.38 19.95 9.92003C19.95 7.27003 18.92 4.78003 17.05 2.91003ZM10.04 18.15C8.55999 18.15 7.10999 17.75 5.83999 17L5.53999 16.82L2.41999 17.64L3.24999 14.6L3.04999 14.29C2.22773 12.977 1.79113 11.4593 1.78999 9.91003C1.78999 5.37003 5.48999 1.67003 10.03 1.67003C12.23 1.67003 14.3 2.53003 15.85 4.09003C16.6175 4.85399 17.2257 5.76269 17.6394 6.76345C18.0531 7.76422 18.264 8.83714 18.26 9.92003C18.28 14.46 14.58 18.15 10.04 18.15ZM14.56 11.99C14.31 11.87 13.09 11.27 12.87 11.18C12.64 11.1 12.48 11.06 12.31 11.3C12.14 11.55 11.67 12.11 11.53 12.27C11.39 12.44 11.24 12.46 10.99 12.33C10.74 12.21 9.93999 11.94 8.99999 11.1C8.25999 10.44 7.76999 9.63003 7.61999 9.38003C7.47999 9.13003 7.59999 9.00003 7.72999 8.87003C7.83999 8.76003 7.97999 8.58003 8.09999 8.44003C8.21999 8.30003 8.26999 8.19003 8.34999 8.03003C8.42999 7.86003 8.38999 7.72003 8.32999 7.60003C8.26999 7.48003 7.76999 6.26003 7.56999 5.76003C7.36999 5.28003 7.15999 5.34003 7.00999 5.33003H6.52999C6.35999 5.33003 6.09999 5.39003 5.86999 5.64003C5.64999 5.89003 5.00999 6.49003 5.00999 7.71003C5.00999 8.93003 5.89999 10.11 6.01999 10.27C6.13999 10.44 7.76999 12.94 10.25 14.01C10.84 14.27 11.3 14.42 11.66 14.53C12.25 14.72 12.79 14.69 13.22 14.63C13.7 14.56 14.69 14.03 14.89 13.45C15.1 12.87 15.1 12.38 15.03 12.27C14.96 12.16 14.81 12.11 14.56 11.99Z" fill="#171717"/>
</svg>
