<svg width="113" height="40" viewBox="0 0 113 40" fill="none" xmlns="http://www.w3.org/2000/svg">
<rect x="1" y="1" width="111" height="38" stroke="white" stroke-width="2"/>
<path d="M19.6719 12.7812V27H17.7871V12.7812H19.6719ZM28.8605 12.7812V27H27.0051V12.7812H28.8605ZM33.4309 12.7812V14.3242H22.4445V12.7812H33.4309ZM52.648 12.7812V27H50.7535L43.5953 16.0332V27H41.7105V12.7812H43.5953L50.7828 23.7773V12.7812H52.648ZM60.8992 27.1953C60.1635 27.1953 59.4962 27.0716 58.8973 26.8242C58.3048 26.5703 57.7938 26.2155 57.3641 25.7598C56.9409 25.304 56.6154 24.7637 56.3875 24.1387C56.1596 23.5137 56.0457 22.8301 56.0457 22.0879V21.6777C56.0457 20.8184 56.1727 20.0534 56.4266 19.3828C56.6805 18.7057 57.0255 18.1328 57.4617 17.6641C57.8979 17.1953 58.3927 16.8405 58.9461 16.5996C59.4995 16.3587 60.0724 16.2383 60.6648 16.2383C61.4201 16.2383 62.0711 16.3685 62.618 16.6289C63.1714 16.8893 63.6238 17.2539 63.9754 17.7227C64.327 18.1849 64.5874 18.7318 64.7566 19.3633C64.9259 19.9883 65.0105 20.6719 65.0105 21.4141V22.2246H57.1199V20.75H63.2039V20.6133C63.1779 20.1445 63.0802 19.6888 62.9109 19.2461C62.7482 18.8034 62.4878 18.4388 62.1297 18.1523C61.7716 17.8659 61.2833 17.7227 60.6648 17.7227C60.2547 17.7227 59.8771 17.8105 59.532 17.9863C59.187 18.1556 58.8908 18.4095 58.6434 18.748C58.396 19.0866 58.2039 19.5 58.0672 19.9883C57.9305 20.4766 57.8621 21.0397 57.8621 21.6777V22.0879C57.8621 22.5892 57.9305 23.0612 58.0672 23.5039C58.2104 23.9401 58.4155 24.3242 58.6824 24.6562C58.9559 24.9883 59.2846 25.2487 59.6688 25.4375C60.0594 25.6263 60.5021 25.7207 60.9969 25.7207C61.6349 25.7207 62.1753 25.5905 62.618 25.3301C63.0607 25.0697 63.448 24.7214 63.7801 24.2852L64.8738 25.1543C64.646 25.4993 64.3563 25.8281 64.0047 26.1406C63.6531 26.4531 63.2202 26.707 62.7059 26.9023C62.198 27.0977 61.5958 27.1953 60.8992 27.1953ZM69.7266 18.0938V27H67.9199V16.4336H69.6777L69.7266 18.0938ZM73.0273 16.375L73.0176 18.0547C72.8678 18.0221 72.7246 18.0026 72.5879 17.9961C72.4577 17.9831 72.3079 17.9766 72.1387 17.9766C71.722 17.9766 71.3542 18.0417 71.0352 18.1719C70.7161 18.3021 70.446 18.4844 70.2246 18.7188C70.0033 18.9531 69.8275 19.2331 69.6973 19.5586C69.5736 19.8776 69.4922 20.2292 69.4531 20.6133L68.9453 20.9062C68.9453 20.2682 69.0072 19.6693 69.1309 19.1094C69.2611 18.5495 69.4596 18.0547 69.7266 17.625C69.9935 17.1888 70.332 16.8503 70.7422 16.6094C71.1589 16.362 71.6536 16.2383 72.2266 16.2383C72.3568 16.2383 72.5065 16.2546 72.6758 16.2871C72.8451 16.3132 72.9622 16.3424 73.0273 16.375ZM81.9621 24.9492V12H83.7785V27H82.1184L81.9621 24.9492ZM74.8527 21.834V21.6289C74.8527 20.8216 74.9504 20.0892 75.1457 19.4316C75.3475 18.7676 75.6307 18.1979 75.9953 17.7227C76.3664 17.2474 76.8059 16.8828 77.3137 16.6289C77.828 16.3685 78.4009 16.2383 79.0324 16.2383C79.6965 16.2383 80.2759 16.3555 80.7707 16.5898C81.272 16.8177 81.6952 17.153 82.0402 17.5957C82.3918 18.0319 82.6685 18.5592 82.8703 19.1777C83.0721 19.7962 83.2121 20.4961 83.2902 21.2773V22.1758C83.2186 22.9505 83.0786 23.6471 82.8703 24.2656C82.6685 24.8841 82.3918 25.4115 82.0402 25.8477C81.6952 26.2839 81.272 26.6191 80.7707 26.8535C80.2694 27.0814 79.6835 27.1953 79.0129 27.1953C78.3944 27.1953 77.828 27.0618 77.3137 26.7949C76.8059 26.528 76.3664 26.1536 75.9953 25.6719C75.6307 25.1901 75.3475 24.6237 75.1457 23.9727C74.9504 23.3151 74.8527 22.6022 74.8527 21.834ZM76.6691 21.6289V21.834C76.6691 22.3613 76.7212 22.8561 76.8254 23.3184C76.9361 23.7806 77.1053 24.1875 77.3332 24.5391C77.5611 24.8906 77.8508 25.1673 78.2023 25.3691C78.5539 25.5645 78.9738 25.6621 79.4621 25.6621C80.0611 25.6621 80.5526 25.5352 80.9367 25.2812C81.3273 25.0273 81.6398 24.6921 81.8742 24.2754C82.1086 23.8587 82.2909 23.4062 82.4211 22.918V20.5645C82.343 20.2064 82.229 19.8613 82.0793 19.5293C81.9361 19.1908 81.7473 18.8913 81.5129 18.6309C81.285 18.3639 81.0018 18.1523 80.6633 17.9961C80.3312 17.8398 79.9374 17.7617 79.4816 17.7617C78.9868 17.7617 78.5604 17.8659 78.2023 18.0742C77.8508 18.276 77.5611 18.556 77.3332 18.9141C77.1053 19.2656 76.9361 19.6758 76.8254 20.1445C76.7212 20.6068 76.6691 21.1016 76.6691 21.6289ZM93.5434 24.1973C93.5434 23.9368 93.4848 23.696 93.3676 23.4746C93.2569 23.2467 93.0258 23.0417 92.6742 22.8594C92.3292 22.6706 91.8083 22.5078 91.1117 22.3711C90.5258 22.2474 89.9952 22.1009 89.5199 21.9316C89.0512 21.7624 88.6508 21.5573 88.3187 21.3164C87.9932 21.0755 87.7426 20.7923 87.5668 20.4668C87.391 20.1413 87.3031 19.7604 87.3031 19.3242C87.3031 18.9076 87.3943 18.5137 87.5766 18.1426C87.7654 17.7715 88.029 17.4427 88.3676 17.1562C88.7126 16.8698 89.126 16.6452 89.6078 16.4824C90.0896 16.3197 90.6267 16.2383 91.2191 16.2383C92.0655 16.2383 92.7881 16.388 93.3871 16.6875C93.9861 16.987 94.4451 17.3874 94.7641 17.8887C95.0831 18.3835 95.2426 18.9336 95.2426 19.5391H93.4359C93.4359 19.2461 93.348 18.9629 93.1723 18.6895C93.003 18.4095 92.7523 18.1784 92.4203 17.9961C92.0948 17.8138 91.6944 17.7227 91.2191 17.7227C90.7178 17.7227 90.3109 17.8008 89.9984 17.957C89.6924 18.1068 89.4678 18.2988 89.3246 18.5332C89.1879 18.7676 89.1195 19.015 89.1195 19.2754C89.1195 19.4707 89.1521 19.6465 89.2172 19.8027C89.2888 19.9525 89.4125 20.0924 89.5883 20.2227C89.7641 20.3464 90.0115 20.4635 90.3305 20.5742C90.6495 20.6849 91.0564 20.7956 91.5512 20.9062C92.4171 21.1016 93.1299 21.3359 93.6898 21.6094C94.2497 21.8828 94.6664 22.2181 94.9398 22.6152C95.2133 23.0124 95.35 23.4941 95.35 24.0605C95.35 24.5228 95.2523 24.946 95.057 25.3301C94.8682 25.7142 94.5915 26.0462 94.227 26.3262C93.8689 26.5996 93.4392 26.8145 92.9379 26.9707C92.4431 27.1204 91.8865 27.1953 91.268 27.1953C90.337 27.1953 89.5492 27.0293 88.9047 26.6973C88.2602 26.3652 87.7719 25.9355 87.4398 25.4082C87.1078 24.8809 86.9418 24.3242 86.9418 23.7383H88.7582C88.7842 24.2331 88.9275 24.627 89.1879 24.9199C89.4483 25.2064 89.7673 25.4115 90.1449 25.5352C90.5225 25.6523 90.8969 25.7109 91.268 25.7109C91.7628 25.7109 92.1762 25.6458 92.5082 25.5156C92.8467 25.3854 93.1039 25.2064 93.2797 24.9785C93.4555 24.7507 93.5434 24.4902 93.5434 24.1973Z" fill="white"/>
</svg>
